<svg xmlns="http://www.w3.org/2000/svg" viewBox="0 0 32 32" width="32" height="32">
  <defs>
    <linearGradient id="g" x1="0%" y1="0%" x2="100%" y2="100%">
      <stop offset="0%" stop-color="#6c5ce7"/>
      <stop offset="100%" stop-color="#a29bfe"/>
    </linearGradient>
  </defs>
  <rect width="32" height="32" rx="6" fill="url(#g)"/>
  <path d="M16,6 C20,6 23,9 23,13 C23,16 21.5,18 20,19 L20,22 C20,23.1 19.1,24 18,24 L14,24 C12.9,24 12,23.1 12,22 L12,19 C10.5,18 9,16 9,13 C9,9 12,6 16,6Z" fill="#fff" opacity="0.95"/>
  <path d="M13,10 C11.5,12 11,15 12,17 L13,10Z" fill="rgba(255,255,255,0.15)"/>
  <path d="M19,10 C20.5,12 21,15 20,17 L19,10Z" fill="rgba(255,255,255,0.15)"/>
</svg>
